<svg xmlns="http://www.w3.org/2000/svg" width="1600" height="900" viewBox="0 0 1600 900" role="img" aria-labelledby="title">
  <title id="title">정보 구조와 화면 계층 배경 B</title>
  <defs>
    <linearGradient id="bg" x1="0" y1="0" x2="1" y2="1"><stop stop-color="#020713"/><stop offset=".48" stop-color="#06172f"/><stop offset="1" stop-color="#16091f"/></linearGradient>
    <linearGradient id="line" x1="0" y1="0" x2="1" y2="1"><stop stop-color="#db2777"/><stop offset="1" stop-color="#7c3aed"/></linearGradient>
    <radialGradient id="halo"><stop stop-color="#db2777" stop-opacity=".34"/><stop offset="1" stop-color="#db2777" stop-opacity="0"/></radialGradient>
    <pattern id="grid" width="80" height="80" patternUnits="userSpaceOnUse"><path d="M80 0H0V80" fill="none" stroke="#a8c8ff" stroke-opacity=".055"/></pattern>
    <filter id="glow"><feGaussianBlur stdDeviation="11" result="b"/><feMerge><feMergeNode in="b"/><feMergeNode in="SourceGraphic"/></feMerge></filter>
  </defs>
  <rect width="1600" height="900" fill="url(#bg)"/><rect width="1600" height="900" fill="url(#grid)"/>
  <ellipse cx="1240" cy="430" rx="520" ry="460" fill="url(#halo)" opacity=".72"/>
  <path d="M760 137 C980 45, 1260 233, 1590 125" stroke="#7c3aed" stroke-opacity=".11" stroke-width="2" fill="none"/><path d="M760 226 C980 134, 1260 322, 1590 214" stroke="#db2777" stroke-opacity=".11" stroke-width="2" fill="none"/><path d="M760 343 C980 251, 1260 439, 1590 331" stroke="#7c3aed" stroke-opacity=".11" stroke-width="2" fill="none"/><path d="M760 432 C980 340, 1260 528, 1590 420" stroke="#db2777" stroke-opacity=".11" stroke-width="2" fill="none"/><path d="M760 549 C980 457, 1260 645, 1590 537" stroke="#7c3aed" stroke-opacity=".11" stroke-width="2" fill="none"/><path d="M760 638 C980 546, 1260 734, 1590 626" stroke="#db2777" stroke-opacity=".11" stroke-width="2" fill="none"/><path d="M760 755 C980 663, 1260 851, 1590 743" stroke="#7c3aed" stroke-opacity=".11" stroke-width="2" fill="none"/><circle cx="333" cy="769" r="4" fill="#7c3aed" opacity=".42"/><circle cx="544" cy="86" r="1" fill="#db2777" opacity=".26"/><circle cx="755" cy="223" r="2" fill="#db2777" opacity=".42"/><circle cx="966" cy="360" r="3" fill="#7c3aed" opacity=".26"/><circle cx="1177" cy="497" r="4" fill="#db2777" opacity=".42"/><circle cx="1388" cy="634" r="1" fill="#db2777" opacity=".26"/><circle cx="89" cy="771" r="2" fill="#7c3aed" opacity=".42"/><circle cx="300" cy="88" r="3" fill="#db2777" opacity=".26"/><circle cx="511" cy="225" r="4" fill="#db2777" opacity=".42"/><circle cx="722" cy="362" r="1" fill="#7c3aed" opacity=".26"/><circle cx="933" cy="499" r="2" fill="#db2777" opacity=".42"/><circle cx="1144" cy="636" r="3" fill="#db2777" opacity=".26"/><circle cx="1355" cy="773" r="4" fill="#7c3aed" opacity=".42"/><circle cx="56" cy="90" r="1" fill="#db2777" opacity=".26"/><circle cx="267" cy="227" r="2" fill="#db2777" opacity=".42"/><circle cx="478" cy="364" r="3" fill="#7c3aed" opacity=".26"/><circle cx="689" cy="501" r="4" fill="#db2777" opacity=".42"/><circle cx="900" cy="638" r="1" fill="#db2777" opacity=".26"/><circle cx="1111" cy="775" r="2" fill="#7c3aed" opacity=".42"/><circle cx="1322" cy="92" r="3" fill="#db2777" opacity=".26"/><circle cx="1533" cy="229" r="4" fill="#db2777" opacity=".42"/><circle cx="234" cy="366" r="1" fill="#7c3aed" opacity=".26"/><circle cx="445" cy="503" r="2" fill="#db2777" opacity=".42"/><circle cx="656" cy="640" r="3" fill="#db2777" opacity=".26"/>
  <g transform="translate(844 70) rotate(5 420 370) scale(0.94)" opacity=".78" filter="url(#glow)"><g fill="none" stroke="url(#line)" stroke-width="5" stroke-linecap="round" stroke-linejoin="round"><rect x="118" y="92" width="610" height="150" rx="10"/><rect x="202" y="284" width="610" height="150" rx="10"/><rect x="118" y="476" width="610" height="150" rx="10"/></g><path fill="none" stroke="#7c3aed" stroke-opacity=".42" stroke-width="3" d="M164 168h314M248 360h390M164 552h470"/></g>
  <g opacity=".12" fill="none" stroke="#7c3aed"><circle cx="1240" cy="430" r="340"/><circle cx="1240" cy="430" r="390"/><circle cx="1240" cy="430" r="440"/></g>
  <path d="M0 760C430 650 745 854 1080 736c220-78 365-39 520 13V900H0z" fill="#db2777" opacity=".035"/>
</svg>