<svg xmlns="http://www.w3.org/2000/svg" width="1600" height="900" viewBox="0 0 1600 900" role="img" aria-labelledby="title">
  <title id="title">구현과 배포 배경 A</title>
  <defs>
    <linearGradient id="bg" x1="0" y1="0" x2="1" y2="1"><stop stop-color="#020713"/><stop offset=".48" stop-color="#06172f"/><stop offset="1" stop-color="#16091f"/></linearGradient>
    <linearGradient id="line" x1="0" y1="0" x2="1" y2="1"><stop stop-color="#2563eb"/><stop offset="1" stop-color="#7c3aed"/></linearGradient>
    <radialGradient id="halo"><stop stop-color="#2563eb" stop-opacity=".34"/><stop offset="1" stop-color="#2563eb" stop-opacity="0"/></radialGradient>
    <pattern id="grid" width="80" height="80" patternUnits="userSpaceOnUse"><path d="M80 0H0V80" fill="none" stroke="#a8c8ff" stroke-opacity=".055"/></pattern>
    <filter id="glow"><feGaussianBlur stdDeviation="11" result="b"/><feMerge><feMergeNode in="b"/><feMergeNode in="SourceGraphic"/></feMerge></filter>
  </defs>
  <rect width="1600" height="900" fill="url(#bg)"/><rect width="1600" height="900" fill="url(#grid)"/>
  <ellipse cx="1240" cy="430" rx="520" ry="460" fill="url(#halo)" opacity=".72"/>
  <path d="M760 116 C980 24, 1260 212, 1590 104" stroke="#7c3aed" stroke-opacity=".11" stroke-width="2" fill="none"/><path d="M760 233 C980 141, 1260 329, 1590 221" stroke="#2563eb" stroke-opacity=".11" stroke-width="2" fill="none"/><path d="M760 322 C980 230, 1260 418, 1590 310" stroke="#7c3aed" stroke-opacity=".11" stroke-width="2" fill="none"/><path d="M760 439 C980 347, 1260 535, 1590 427" stroke="#2563eb" stroke-opacity=".11" stroke-width="2" fill="none"/><path d="M760 528 C980 436, 1260 624, 1590 516" stroke="#7c3aed" stroke-opacity=".11" stroke-width="2" fill="none"/><path d="M760 645 C980 553, 1260 741, 1590 633" stroke="#2563eb" stroke-opacity=".11" stroke-width="2" fill="none"/><path d="M760 734 C980 642, 1260 830, 1590 722" stroke="#7c3aed" stroke-opacity=".11" stroke-width="2" fill="none"/><circle cx="288" cy="104" r="3" fill="#7c3aed" opacity=".42"/><circle cx="499" cy="241" r="4" fill="#2563eb" opacity=".26"/><circle cx="710" cy="378" r="1" fill="#2563eb" opacity=".42"/><circle cx="921" cy="515" r="2" fill="#7c3aed" opacity=".26"/><circle cx="1132" cy="652" r="3" fill="#2563eb" opacity=".42"/><circle cx="1343" cy="789" r="4" fill="#2563eb" opacity=".26"/><circle cx="44" cy="106" r="1" fill="#7c3aed" opacity=".42"/><circle cx="255" cy="243" r="2" fill="#2563eb" opacity=".26"/><circle cx="466" cy="380" r="3" fill="#2563eb" opacity=".42"/><circle cx="677" cy="517" r="4" fill="#7c3aed" opacity=".26"/><circle cx="888" cy="654" r="1" fill="#2563eb" opacity=".42"/><circle cx="1099" cy="791" r="2" fill="#2563eb" opacity=".26"/><circle cx="1310" cy="108" r="3" fill="#7c3aed" opacity=".42"/><circle cx="1521" cy="245" r="4" fill="#2563eb" opacity=".26"/><circle cx="222" cy="382" r="1" fill="#2563eb" opacity=".42"/><circle cx="433" cy="519" r="2" fill="#7c3aed" opacity=".26"/><circle cx="644" cy="656" r="3" fill="#2563eb" opacity=".42"/><circle cx="855" cy="793" r="4" fill="#2563eb" opacity=".26"/><circle cx="1066" cy="110" r="1" fill="#7c3aed" opacity=".42"/><circle cx="1277" cy="247" r="2" fill="#2563eb" opacity=".26"/><circle cx="1488" cy="384" r="3" fill="#2563eb" opacity=".42"/><circle cx="189" cy="521" r="4" fill="#7c3aed" opacity=".26"/><circle cx="400" cy="658" r="1" fill="#2563eb" opacity=".42"/><circle cx="611" cy="795" r="2" fill="#2563eb" opacity=".26"/>
  <g transform="translate(760 70) rotate(-4 420 370) scale(1)" opacity=".78" filter="url(#glow)"><g fill="none" stroke="url(#line)" stroke-width="5" stroke-linecap="round" stroke-linejoin="round"><rect x="82" y="118" width="466" height="376" rx="15"/><path d="M82 204h466M152 275l76 68-76 68m120 0h126"/></g><path fill="none" stroke="url(#line)" stroke-width="5" stroke-linecap="round" stroke-linejoin="round" d="M616 474c-62-105-25-221 104-277 89 126 71 244-39 314l-65-37zM625 466l-69 91m133-52 17 86"/><path fill="none" stroke="#7c3aed" stroke-opacity=".42" stroke-width="3" d="M672 234l38 39"/></g>
  <g opacity=".12" fill="none" stroke="#7c3aed"><circle cx="1240" cy="430" r="340"/><circle cx="1240" cy="430" r="390"/><circle cx="1240" cy="430" r="440"/></g>
  <path d="M0 760C430 650 745 854 1080 736c220-78 365-39 520 13V900H0z" fill="#2563eb" opacity=".035"/>
</svg>