<svg xmlns="http://www.w3.org/2000/svg" width="1600" height="900" viewBox="0 0 1600 900" role="img" aria-labelledby="title">
  <title id="title">지속 개선 운영 루프 배경 C</title>
  <defs>
    <linearGradient id="bg" x1="0" y1="0" x2="1" y2="1"><stop stop-color="#020713"/><stop offset=".48" stop-color="#06172f"/><stop offset="1" stop-color="#16091f"/></linearGradient>
    <linearGradient id="line" x1="0" y1="0" x2="1" y2="1"><stop stop-color="#00a9e0"/><stop offset="1" stop-color="#10b981"/></linearGradient>
    <radialGradient id="halo"><stop stop-color="#00a9e0" stop-opacity=".34"/><stop offset="1" stop-color="#00a9e0" stop-opacity="0"/></radialGradient>
    <pattern id="grid" width="80" height="80" patternUnits="userSpaceOnUse"><path d="M80 0H0V80" fill="none" stroke="#a8c8ff" stroke-opacity=".055"/></pattern>
    <filter id="glow"><feGaussianBlur stdDeviation="11" result="b"/><feMerge><feMergeNode in="b"/><feMergeNode in="SourceGraphic"/></feMerge></filter>
  </defs>
  <rect width="1600" height="900" fill="url(#bg)"/><rect width="1600" height="900" fill="url(#grid)"/>
  <ellipse cx="1240" cy="430" rx="520" ry="460" fill="url(#halo)" opacity=".72"/>
  <path d="M760 110 C980 18, 1260 206, 1590 98" stroke="#10b981" stroke-opacity=".11" stroke-width="2" fill="none"/><path d="M760 227 C980 135, 1260 323, 1590 215" stroke="#00a9e0" stroke-opacity=".11" stroke-width="2" fill="none"/><path d="M760 344 C980 252, 1260 440, 1590 332" stroke="#10b981" stroke-opacity=".11" stroke-width="2" fill="none"/><path d="M760 433 C980 341, 1260 529, 1590 421" stroke="#00a9e0" stroke-opacity=".11" stroke-width="2" fill="none"/><path d="M760 550 C980 458, 1260 646, 1590 538" stroke="#10b981" stroke-opacity=".11" stroke-width="2" fill="none"/><path d="M760 639 C980 547, 1260 735, 1590 627" stroke="#00a9e0" stroke-opacity=".11" stroke-width="2" fill="none"/><path d="M760 756 C980 664, 1260 852, 1590 744" stroke="#10b981" stroke-opacity=".11" stroke-width="2" fill="none"/><circle cx="662" cy="742" r="1" fill="#10b981" opacity=".42"/><circle cx="873" cy="59" r="2" fill="#00a9e0" opacity=".26"/><circle cx="1084" cy="196" r="3" fill="#00a9e0" opacity=".42"/><circle cx="1295" cy="333" r="4" fill="#10b981" opacity=".26"/><circle cx="1506" cy="470" r="1" fill="#00a9e0" opacity=".42"/><circle cx="207" cy="607" r="2" fill="#00a9e0" opacity=".26"/><circle cx="418" cy="744" r="3" fill="#10b981" opacity=".42"/><circle cx="629" cy="61" r="4" fill="#00a9e0" opacity=".26"/><circle cx="840" cy="198" r="1" fill="#00a9e0" opacity=".42"/><circle cx="1051" cy="335" r="2" fill="#10b981" opacity=".26"/><circle cx="1262" cy="472" r="3" fill="#00a9e0" opacity=".42"/><circle cx="1473" cy="609" r="4" fill="#00a9e0" opacity=".26"/><circle cx="174" cy="746" r="1" fill="#10b981" opacity=".42"/><circle cx="385" cy="63" r="2" fill="#00a9e0" opacity=".26"/><circle cx="596" cy="200" r="3" fill="#00a9e0" opacity=".42"/><circle cx="807" cy="337" r="4" fill="#10b981" opacity=".26"/><circle cx="1018" cy="474" r="1" fill="#00a9e0" opacity=".42"/><circle cx="1229" cy="611" r="2" fill="#00a9e0" opacity=".26"/><circle cx="1440" cy="748" r="3" fill="#10b981" opacity=".42"/><circle cx="141" cy="65" r="4" fill="#00a9e0" opacity=".26"/><circle cx="352" cy="202" r="1" fill="#00a9e0" opacity=".42"/><circle cx="563" cy="339" r="2" fill="#10b981" opacity=".26"/><circle cx="774" cy="476" r="3" fill="#00a9e0" opacity=".42"/><circle cx="985" cy="613" r="4" fill="#00a9e0" opacity=".26"/>
  <g transform="translate(708 70) rotate(0 420 370) scale(1.08)" opacity=".78" filter="url(#glow)"><path fill="none" stroke="url(#line)" stroke-width="5" stroke-linecap="round" stroke-linejoin="round" d="M70 372l170-205 170 205-170 205zM430 372l170-205 170 205-170 205z"/><path fill="none" stroke="#10b981" stroke-opacity=".42" stroke-width="3" d="M240 167c88 29 139 74 170 205-29 127-82 175-170 205M600 167c88 29 139 74 170 205-29 127-82 175-170 205"/></g>
  <g opacity=".12" fill="none" stroke="#10b981"><circle cx="1240" cy="430" r="340"/><circle cx="1240" cy="430" r="390"/><circle cx="1240" cy="430" r="440"/></g>
  <path d="M0 760C430 650 745 854 1080 736c220-78 365-39 520 13V900H0z" fill="#00a9e0" opacity=".035"/>
</svg>