<svg xmlns="http://www.w3.org/2000/svg" width="1600" height="900" viewBox="0 0 1600 900" role="img" aria-labelledby="title">
  <title id="title">완료 기준과 공개 운영 배경 B</title>
  <defs>
    <linearGradient id="bg" x1="0" y1="0" x2="1" y2="1"><stop stop-color="#020713"/><stop offset=".48" stop-color="#06172f"/><stop offset="1" stop-color="#16091f"/></linearGradient>
    <linearGradient id="line" x1="0" y1="0" x2="1" y2="1"><stop stop-color="#00a9e0"/><stop offset="1" stop-color="#a855f7"/></linearGradient>
    <radialGradient id="halo"><stop stop-color="#00a9e0" stop-opacity=".34"/><stop offset="1" stop-color="#00a9e0" stop-opacity="0"/></radialGradient>
    <pattern id="grid" width="80" height="80" patternUnits="userSpaceOnUse"><path d="M80 0H0V80" fill="none" stroke="#a8c8ff" stroke-opacity=".055"/></pattern>
    <filter id="glow"><feGaussianBlur stdDeviation="11" result="b"/><feMerge><feMergeNode in="b"/><feMergeNode in="SourceGraphic"/></feMerge></filter>
  </defs>
  <rect width="1600" height="900" fill="url(#bg)"/><rect width="1600" height="900" fill="url(#grid)"/>
  <ellipse cx="1240" cy="430" rx="520" ry="460" fill="url(#halo)" opacity=".72"/>
  <path d="M760 115 C980 23, 1260 211, 1590 103" stroke="#a855f7" stroke-opacity=".11" stroke-width="2" fill="none"/><path d="M760 232 C980 140, 1260 328, 1590 220" stroke="#00a9e0" stroke-opacity=".11" stroke-width="2" fill="none"/><path d="M760 321 C980 229, 1260 417, 1590 309" stroke="#a855f7" stroke-opacity=".11" stroke-width="2" fill="none"/><path d="M760 438 C980 346, 1260 534, 1590 426" stroke="#00a9e0" stroke-opacity=".11" stroke-width="2" fill="none"/><path d="M760 527 C980 435, 1260 623, 1590 515" stroke="#a855f7" stroke-opacity=".11" stroke-width="2" fill="none"/><path d="M760 644 C980 552, 1260 740, 1590 632" stroke="#00a9e0" stroke-opacity=".11" stroke-width="2" fill="none"/><path d="M760 761 C980 669, 1260 857, 1590 749" stroke="#a855f7" stroke-opacity=".11" stroke-width="2" fill="none"/><circle cx="583" cy="839" r="2" fill="#a855f7" opacity=".42"/><circle cx="794" cy="156" r="3" fill="#00a9e0" opacity=".26"/><circle cx="1005" cy="293" r="4" fill="#00a9e0" opacity=".42"/><circle cx="1216" cy="430" r="1" fill="#a855f7" opacity=".26"/><circle cx="1427" cy="567" r="2" fill="#00a9e0" opacity=".42"/><circle cx="128" cy="704" r="3" fill="#00a9e0" opacity=".26"/><circle cx="339" cy="841" r="4" fill="#a855f7" opacity=".42"/><circle cx="550" cy="158" r="1" fill="#00a9e0" opacity=".26"/><circle cx="761" cy="295" r="2" fill="#00a9e0" opacity=".42"/><circle cx="972" cy="432" r="3" fill="#a855f7" opacity=".26"/><circle cx="1183" cy="569" r="4" fill="#00a9e0" opacity=".42"/><circle cx="1394" cy="706" r="1" fill="#00a9e0" opacity=".26"/><circle cx="95" cy="843" r="2" fill="#a855f7" opacity=".42"/><circle cx="306" cy="160" r="3" fill="#00a9e0" opacity=".26"/><circle cx="517" cy="297" r="4" fill="#00a9e0" opacity=".42"/><circle cx="728" cy="434" r="1" fill="#a855f7" opacity=".26"/><circle cx="939" cy="571" r="2" fill="#00a9e0" opacity=".42"/><circle cx="1150" cy="708" r="3" fill="#00a9e0" opacity=".26"/><circle cx="1361" cy="845" r="4" fill="#a855f7" opacity=".42"/><circle cx="62" cy="162" r="1" fill="#00a9e0" opacity=".26"/><circle cx="273" cy="299" r="2" fill="#00a9e0" opacity=".42"/><circle cx="484" cy="436" r="3" fill="#a855f7" opacity=".26"/><circle cx="695" cy="573" r="4" fill="#00a9e0" opacity=".42"/><circle cx="906" cy="710" r="1" fill="#00a9e0" opacity=".26"/>
  <g transform="translate(844 70) rotate(5 420 370) scale(0.94)" opacity=".78" filter="url(#glow)"><circle fill="none" stroke="url(#line)" stroke-width="5" stroke-linecap="round" stroke-linejoin="round" cx="420" cy="364" r="278"/><circle fill="none" stroke="#a855f7" stroke-opacity=".42" stroke-width="3" cx="420" cy="364" r="212"/><path fill="none" stroke="url(#line)" stroke-width="5" stroke-linecap="round" stroke-linejoin="round" d="M275 364l98 101 211-230"/><path fill="none" stroke="#a855f7" stroke-opacity=".42" stroke-width="3" d="M420 86v-48m0 652v-48M142 364H94m652 0h-48"/></g>
  <g opacity=".12" fill="none" stroke="#a855f7"><circle cx="1240" cy="430" r="340"/><circle cx="1240" cy="430" r="390"/><circle cx="1240" cy="430" r="440"/></g>
  <path d="M0 760C430 650 745 854 1080 736c220-78 365-39 520 13V900H0z" fill="#00a9e0" opacity=".035"/>
</svg>